<svg width="72" height="163" viewBox="0 0 72 163" fill="none" xmlns="http://www.w3.org/2000/svg">
<path class="arrow-bg" d="M35.7598 0C35.7601 32.8784 71.5192 52.3078 71.5195 81.2012C71.5192 110.095 35.7598 129.524 35.7598 162.402C35.7598 129.524 0.000371439 110.095 0 81.2012C0.000371437 52.3078 35.7594 32.8784 35.7598 0Z"/>
<path class="arrow-body" d="M39.6367 59.7941C38.6605 58.8179 37.0779 58.8181 36.1016 59.7941L20.1914 75.7043C19.2151 76.6806 19.2151 78.2631 20.1914 79.2394L36.1016 95.1496C37.0779 96.1256 38.6605 96.1258 39.6367 95.1496C40.6129 94.1734 40.6128 92.5908 39.6367 91.6144L27.9941 79.9718L49.543 79.9719C50.9237 79.9719 52.043 78.8526 52.043 77.4719C52.043 76.0911 50.9237 74.9719 49.543 74.9719L27.9941 74.9719L39.6367 63.3293C40.6128 62.3529 40.6129 60.7703 39.6367 59.7941Z"/>
</svg>
