<svg width="72" height="163" viewBox="0 0 72 163" fill="none" xmlns="http://www.w3.org/2000/svg">
<path class="arrow-bg" d="M35.7598 0C35.7601 32.8784 71.5192 52.3078 71.5195 81.2012C71.5192 110.095 35.7598 129.524 35.7598 162.402C35.7598 129.524 0.000371439 110.095 0 81.2012C0.000371437 52.3078 35.7594 32.8784 35.7598 0Z"/>
<path class="arrow-body" d="M31.8652 59.7941C32.8415 58.8179 34.4241 58.8181 35.4004 59.7941L51.3105 75.7043C52.2869 76.6806 52.2869 78.2631 51.3105 79.2394L35.4004 95.1496C34.4241 96.1256 32.8415 96.1258 31.8652 95.1496C30.889 94.1734 30.8892 92.5908 31.8652 91.6144L43.5078 79.9718L21.959 79.9719C20.5783 79.9719 19.459 78.8526 19.459 77.4719C19.459 76.0911 20.5783 74.9719 21.959 74.9719L43.5078 74.9719L31.8652 63.3293C30.8892 62.3529 30.889 60.7703 31.8652 59.7941Z"/>
</svg>
