<svg width="49" height="49" viewBox="0 0 49 49" fill="none" xmlns="http://www.w3.org/2000/svg">
<path d="M19.4651 16.8266C15.2685 16.8271 11.0717 16.8277 6.87552 16.8248C5.04949 16.8248 3.81459 15.4786 4.05617 13.7381C4.18573 12.7981 4.76067 12.1688 5.60553 11.736C7.1393 10.9487 8.66961 10.154 10.1998 9.35933C11.0124 8.93737 11.8254 8.51517 12.6384 8.09435C13.691 7.54894 14.7441 7.00424 15.7972 6.45951C17.9793 5.33085 20.1616 4.20206 22.3408 3.06663C23.7727 2.3205 25.1979 2.30855 26.6245 3.04671C32.1863 5.92235 37.7453 8.80197 43.3031 11.6856C44.7337 12.4277 45.3154 13.7328 44.8308 15.0551C44.426 16.1583 43.4164 16.8275 42.1289 16.8275C38.5148 16.8292 34.9014 16.8287 31.2877 16.8281C29.4807 16.8278 27.6732 16.8275 25.866 16.8275H24.5029L24.5015 16.8261C22.8229 16.8261 21.1438 16.8264 19.4651 16.8266Z" fill="#0E5A67"/>
<path d="M30.1713 40.1062C33.9774 40.1056 37.7837 40.105 41.5905 40.1068C43.2938 40.1068 44.5867 41.1198 44.9335 42.7037C45.3195 44.4574 43.9753 46.279 42.1614 46.4569C41.8942 46.4834 41.6243 46.498 41.3557 46.498C30.1053 46.5007 18.8562 46.5007 7.60581 46.498C5.8675 46.498 4.61775 45.6948 4.16023 44.2888C3.48407 42.2111 5.02804 40.1254 7.2846 40.1068C9.02134 40.093 10.7587 40.0964 12.4958 40.0998H12.4969C13.2689 40.1013 14.041 40.1028 14.8128 40.1028H24.4625V40.1068C26.3653 40.1068 28.2685 40.1065 30.1713 40.1062Z" fill="#0E5A67"/>
<path d="M14.7972 29.8418C14.7916 29.383 14.786 28.924 14.786 28.4652L14.7873 28.4639C14.7873 28.0057 14.7929 27.5471 14.7986 27.0885C14.8112 26.0562 14.8239 25.0233 14.7725 23.9938C14.6861 22.2626 13.2083 20.9814 11.4861 21.0252C9.77078 21.069 8.34019 22.4338 8.31994 24.1425C8.2862 27.0248 8.2862 29.907 8.31994 32.7893C8.33884 34.4966 9.77213 35.8614 11.4875 35.9066C13.2069 35.9504 14.6847 34.6679 14.7711 32.9354C14.8225 31.906 14.8099 30.8741 14.7972 29.8418Z" fill="#0E5A67"/>
<path d="M27.719 28.4885C27.719 28.9442 27.7246 29.3999 27.7301 29.8556C27.7427 30.891 27.7553 31.9261 27.7029 32.9587C27.6178 34.662 26.1508 35.9339 24.4462 35.906C22.7349 35.8781 21.2787 34.5199 21.2544 32.8139C21.2152 29.9157 21.2152 27.0162 21.2544 24.118C21.2773 22.412 22.7309 21.0538 24.4435 21.0246C26.1481 20.9954 27.6178 22.2673 27.7029 23.968C27.7548 25.02 27.742 26.076 27.7291 27.1317C27.7236 27.5841 27.7181 28.0366 27.7177 28.4885H27.719Z" fill="#0E5A67"/>
<path d="M40.6673 29.8253C40.6618 29.3672 40.6564 28.9091 40.6564 28.4511H40.6537C40.6537 27.9929 40.6593 27.5342 40.6649 27.0755C40.6776 26.0432 40.6902 25.0105 40.6388 23.981C40.5538 22.2737 39.0976 21.0032 37.3916 21.0244C35.6803 21.0456 34.216 22.4011 34.1917 24.1058C34.1499 27.004 34.1526 29.9036 34.189 32.8018C34.2106 34.5078 35.6547 35.8699 37.3687 35.9058C39.0908 35.9416 40.5551 34.6591 40.6415 32.9213C40.692 31.8911 40.6797 30.8583 40.6673 29.8253Z" fill="#0E5A67"/>
</svg>
