<svg width="49" height="49" viewBox="0 0 49 49" fill="none" xmlns="http://www.w3.org/2000/svg">
<path d="M1.91992 4.4758V17.6431C1.91992 18.3353 2.16118 18.5853 2.83704 18.5853C4.73401 18.5866 6.62967 18.5866 8.52547 18.5853C9.18492 18.584 9.44508 18.3353 9.44508 17.6909C9.44757 13.2716 9.44757 8.8511 9.44508 4.43058C9.44508 3.78367 9.18623 3.53368 8.52796 3.53368H8.52678C6.6302 3.53243 4.7348 3.53119 2.83953 3.53368C2.16485 3.53493 1.91992 3.78741 1.91992 4.4758Z" fill="#0E5A67"/>
<path d="M12.3337 5.05479C12.7788 4.9507 13.2235 4.84458 13.6682 4.73799L13.671 4.73721C15.2369 4.36206 16.8026 3.98699 18.3869 3.70917C21.1108 3.23211 23.6948 3.70432 25.9964 5.31311C26.8969 5.94231 27.7962 6.57511 28.802 7.27972H18.2865C15.7261 7.27972 14.0637 9.10634 14.3425 11.6546H14.7884C17.0913 11.6546 19.3928 11.651 21.6955 11.6559C23.3479 11.6595 24.6734 12.9227 24.6882 14.4986C24.7044 16.1635 23.4383 17.4729 21.7538 17.4838C21.4483 17.4859 21.1427 17.4884 20.8372 17.4912L20.3938 17.4953C18.4518 17.5133 16.5086 17.5314 14.5704 17.4534C13.8894 17.4267 13.2149 17.2406 12.5403 17.0545C12.232 16.9694 11.9237 16.8844 11.6148 16.8145V13.5422L11.6067 9.38323V9.38107L11.5987 5.22431C11.8439 5.16866 12.0889 5.11202 12.3337 5.05479Z" fill="#0E5A67"/>
<path d="M18.8444 19.5869H15.901L15.8997 19.5894L15.8991 21.3393C15.8986 22.4957 15.8981 23.6443 15.8997 24.7923C15.9022 26.2351 16.8321 27.1885 18.2387 27.1885H41.5023C42.9396 27.1885 43.856 26.2428 43.856 24.7606V11.3866C43.856 9.83319 42.9617 8.9103 41.4593 8.9103H18.2878L18.2355 8.91004L18.1837 8.90951C18.1436 8.90905 18.1033 8.90859 18.063 8.90873C18.0156 8.90886 17.9681 8.90991 17.9206 8.91286C17.0729 8.96241 16.1921 9.70226 16.1197 10.4332L17.9586 10.4327C19.1846 10.4321 20.4107 10.4315 21.6367 10.4332C22.8147 10.4344 23.8688 10.8044 24.73 11.6485C24.9782 11.8912 25.2177 11.9599 25.5383 11.9599C29.5837 11.9523 33.6302 11.9548 37.6756 11.9548C38.42 11.9548 38.635 12.1518 38.71 12.8954C38.7787 13.5794 39.3377 14.159 39.9987 14.2353C40.7272 14.3191 40.9138 14.534 40.9138 15.3005L40.9141 16.7166C40.9142 18.0848 40.9147 19.4527 40.9138 20.8212C40.9126 21.5521 40.7075 21.7886 40.0182 21.8585C39.3463 21.9271 38.7874 22.4915 38.7111 23.1767C38.624 23.9584 38.4262 24.1402 37.6498 24.1402H27.4436C25.6194 24.1402 23.7963 24.1441 21.972 24.1389C21.3602 24.1377 21.1023 23.886 21.0494 23.2758C20.9806 22.4635 20.4549 21.9297 19.6527 21.8559C19.1121 21.8051 18.8567 21.5318 18.8455 20.9687C18.8398 20.6595 18.8413 20.3498 18.8429 20.0355V20.0325L18.8433 19.9716C18.8438 19.8442 18.8444 19.7161 18.8444 19.5869Z" fill="#0E5A67"/>
<path d="M37.4043 43.694V32.257C36.2742 31.7912 35.1175 31.4889 33.8915 31.4901L29.0899 31.4897C27.9981 31.4896 26.9064 31.4898 25.8148 31.4913C24.1985 31.4938 22.8974 32.7288 22.907 34.2369C22.918 35.9669 24.2191 37.3312 25.8657 37.3336C26.8956 37.3342 27.9259 37.3339 28.9561 37.3337L30.1922 37.3334C30.8677 37.3332 31.543 37.3332 32.2182 37.3336C32.8136 37.3336 33.1083 37.5762 33.1118 38.0566C33.1155 38.5381 32.8185 38.7881 32.2279 38.7881C30.1108 38.7905 27.9926 38.7941 25.8753 38.7869C24.8301 38.7832 23.8832 38.465 23.0755 37.7895C21.8328 36.7496 21.3283 35.4012 21.486 33.7712C20.5656 33.5127 19.655 33.2518 18.742 33.0019C18.3105 32.8842 17.8797 32.764 17.4489 32.6438L17.4442 32.6424C16.2965 32.3222 15.1489 32.0021 13.99 31.7303C12.735 31.4352 11.5442 31.9802 10.9283 32.9982C10.1061 34.3588 10.5645 36.1023 12.0123 37.0374C12.4269 37.3055 12.8418 37.5732 13.2569 37.8405C13.5387 38.0221 13.8206 38.2036 14.1026 38.3849C14.7076 38.7741 15.3129 39.1628 15.9182 39.5515C18.1252 40.9687 20.3319 42.3858 22.5264 43.8233C24.7405 45.2729 27.1619 45.7459 29.7094 45.3156C31.5056 45.0132 33.2859 44.6125 35.0702 44.2109L35.0758 44.2098C35.8506 44.0354 36.6262 43.8608 37.4043 43.694Z" fill="#0E5A67"/>
<path d="M39.5567 37.8966V31.4083C39.5567 30.6485 39.7803 30.4163 40.5203 30.4163C41.0981 30.4155 41.6758 30.4149 42.2535 30.4146C43.5409 30.414 44.828 30.4145 46.1158 30.4163C46.8406 30.4163 47.0819 30.6536 47.0819 31.3593V44.5243C47.0819 45.2175 46.8394 45.4674 46.1648 45.4674C45.2739 45.468 44.3833 45.4683 43.4928 45.4683C42.487 45.4684 41.4811 45.4681 40.475 45.4674C39.7992 45.4674 39.5567 45.2188 39.5554 44.5269C39.5546 43.0534 39.5549 41.58 39.5551 40.1068L39.5554 37.8979L39.5567 37.8966Z" fill="#0E5A67"/>
<path d="M29.8618 15.3604C28.0776 15.3626 26.6515 16.5575 26.6515 18.0486C26.6528 19.5363 28.0856 20.7346 29.8659 20.7368C31.6529 20.739 33.0978 19.5475 33.1032 18.0666C33.1086 16.553 31.677 15.3581 29.8618 15.3604Z" fill="#0E5A67"/>
</svg>
