<svg width="49" height="49" viewBox="0 0 49 49" fill="none" xmlns="http://www.w3.org/2000/svg">
<path fill-rule="evenodd" clip-rule="evenodd" d="M11.0253 46.5321H38.3128L38.3117 46.5309C38.3694 46.477 38.4271 46.4219 38.4849 46.368C39.4211 45.9021 40.2453 45.2985 40.6416 44.2796C40.8295 43.7942 41.0061 43.263 41.0072 42.7524C41.0256 35.3939 41.0246 28.0348 41.0236 20.6755C41.0233 18.9768 41.0231 17.2782 41.0231 15.5795C41.0231 15.5619 41.0208 15.5443 41.0164 15.5112C41.014 15.4927 41.0109 15.4693 41.0072 15.4384H40.5691C39.7646 15.4384 38.9599 15.4381 38.1553 15.4378C36.2775 15.4371 34.3995 15.4363 32.522 15.4395C31.5529 15.4418 30.6325 15.3099 29.84 14.6719C28.9909 13.9892 28.3705 13.1217 28.3343 12.0316C28.283 10.4535 28.2935 8.87374 28.3041 7.29425C28.3084 6.64224 28.3128 5.99029 28.3128 5.33853V2.55481H27.2033C26.8926 2.55481 26.5819 2.55492 26.2712 2.55504C25.1841 2.55543 24.0974 2.55583 23.0099 2.55137C22.9244 2.55059 22.8395 2.52591 22.7543 2.50118C22.7143 2.48956 22.6742 2.47792 22.6341 2.46875H22.5491C22.5047 2.4779 22.4603 2.48961 22.4159 2.50132C22.3211 2.52634 22.2262 2.55137 22.1314 2.55137C20.9679 2.55317 19.8044 2.55302 18.6409 2.55288C16.8428 2.55266 15.0446 2.55243 13.2465 2.5594C12.6807 2.56176 12.1148 2.58901 11.5489 2.61625C11.2906 2.62869 11.0323 2.64112 10.774 2.65119C10.6902 2.67988 10.6053 2.70857 10.5204 2.73725C9.64524 3.07575 8.97502 3.67128 8.44972 4.44466C8.404 4.5122 8.37684 4.59211 8.34974 4.67187C8.33724 4.70864 8.32476 4.74538 8.31047 4.78087L8.24594 4.87381C8.23065 4.90307 8.21537 4.93262 8.20008 4.96216C8.1848 4.99171 8.16952 5.02126 8.15423 5.05052L8.04781 5.39016C8.04009 5.63104 8.03041 5.87203 8.02072 6.11306C7.99918 6.64935 7.97762 7.18584 7.97762 7.72179C7.97536 19.4958 7.97649 31.2687 7.98328 43.0427C7.98328 43.8264 8.34669 44.4781 8.79615 45.0897C9.35994 45.8574 10.1739 46.2222 11.0253 46.5321ZM27.1352 23.2562C26.3168 23.2561 25.4984 23.256 24.6798 23.256C24.1943 23.256 23.7088 23.256 23.2232 23.2561C21.2822 23.2563 19.3407 23.2565 17.3991 23.2537C17.107 23.2537 16.8093 23.2514 16.5229 23.2021C16.07 23.124 15.6262 22.5606 15.6557 22.0374C15.6851 21.5027 15.7587 21.0609 16.2613 20.8544C16.5682 20.7282 16.9282 20.6868 17.2644 20.6868C22.1608 20.6765 27.0572 20.6777 31.9537 20.6823C32.9171 20.6823 33.5183 21.3673 33.3167 22.3082C33.2013 22.8452 32.6533 23.256 32.0454 23.256C30.4084 23.2568 28.7719 23.2565 27.1352 23.2562ZM32.0363 28.4092H24.6707L24.6696 28.4103C24.0631 28.4103 23.4566 28.4105 22.85 28.4106C21.0299 28.4111 19.2094 28.4115 17.3889 28.4081C17.098 28.4081 16.8025 28.3977 16.5149 28.3518C16.0961 28.2841 15.6206 27.7414 15.6557 27.1814C15.6896 26.6456 15.77 26.2072 16.2693 26.0018C16.5761 25.8756 16.9372 25.8401 17.2746 25.8401C22.171 25.8309 27.0674 25.8309 31.9639 25.8366C32.9262 25.8378 33.5205 26.5297 33.3167 27.4717C33.2013 28.003 32.6477 28.4092 32.0363 28.4092ZM24.2496 33.4775V33.5624C23.4314 33.5624 22.6133 33.5625 21.7953 33.5627C20.1587 33.5629 18.5222 33.5632 16.8851 33.5624C16.2693 33.5624 15.7576 33.1597 15.616 32.5722C15.4904 32.0501 15.7643 31.4041 16.267 31.1516C16.4776 31.046 16.7368 30.9933 16.9746 30.9933C21.8291 30.9841 26.6836 30.9749 31.537 31.0024C31.5819 31.0026 31.6272 31.0024 31.673 31.0023C32.1723 31.0002 32.7157 30.998 33.1005 31.4878C33.422 31.8975 33.3835 32.361 33.2522 32.773C33.1243 33.1734 32.8084 33.4798 32.3126 33.4798C30.2971 33.4763 28.2816 33.4768 26.2661 33.4772C25.5939 33.4774 24.9218 33.4775 24.2496 33.4775ZM21.7872 38.6869V38.7179C21.3206 38.7179 20.854 38.716 20.3873 38.7141C19.2441 38.7093 18.1008 38.7046 16.9576 38.7282C16.1685 38.7443 15.5923 38.0845 15.5991 37.4569C15.6081 36.6686 16.1176 36.1511 16.9463 36.143C17.564 36.1374 18.1823 36.1385 18.8004 36.1397C19.0579 36.1402 19.3154 36.1407 19.5728 36.1407C20.1604 36.1407 20.748 36.1404 21.3356 36.1401C22.9511 36.1392 24.5666 36.1383 26.1821 36.1442C26.5704 36.1453 26.961 36.1752 27.3459 36.2302C27.946 36.3163 28.2833 36.9026 28.2313 37.7208C28.203 38.1763 27.6471 38.6823 27.1422 38.6846C25.8436 38.6888 24.5457 38.6881 23.2475 38.6874C22.7608 38.6872 22.274 38.6869 21.7872 38.6869Z" fill="#0E5A67"/>
<path d="M30.9495 12.1723L31.0287 12.3364V12.3375C31.0858 12.396 31.1433 12.4545 31.2007 12.513C31.2582 12.5715 31.3157 12.6301 31.3729 12.6887C31.4438 12.7073 31.5147 12.731 31.5855 12.7547C31.7371 12.8055 31.8884 12.8562 32.0397 12.8562C34.036 12.8638 36.0322 12.8627 38.0285 12.8616C38.7414 12.8612 39.4543 12.8608 40.1672 12.8608C40.1785 12.8344 40.1797 12.808 40.1695 12.7816C40.1339 12.7487 40.0976 12.7164 40.0613 12.6842C39.9927 12.6233 39.9241 12.5624 39.8604 12.497C39.2779 11.8981 38.6962 11.2984 38.1145 10.6988C37.1258 9.67964 36.1373 8.66058 35.1451 7.6456C34.3257 6.8072 33.5019 5.97329 32.678 5.13937C32.1838 4.63909 31.6896 4.1388 31.1963 3.63755C31.1318 3.57218 31.0763 3.49816 31.0208 3.42402C30.9955 3.39015 30.9701 3.35625 30.9438 3.32315L30.8646 3.3897V12.0002L30.9495 12.1723Z" fill="#0E5A67"/>
</svg>
