<?xml version="1.0" encoding="UTF-8"?>
<svg id="Layer_1" xmlns="http://www.w3.org/2000/svg" version="1.1" viewBox="0 0 61 73">
  <!-- Generator: Adobe Illustrator 29.1.0, SVG Export Plug-In . SVG Version: 2.1.0 Build 142)  -->
  <defs>
    <style>
      .st0 {
        fill: #fff;
      }

      .st1 {
        fill: #ff8001;
      }
    </style>
  </defs>
  <path class="st1" d="M8.9,8.9c11.7-11.6,30.7-11.6,42.4,0,11.7,11.6,11.7,30.5,0,42.2l-21.2,21.1-21.2-21.1c-11.7-11.6-11.7-30.5,0-42.2h0Z"/>
  <path class="st0" d="M30.9,47.1s0,0,0,0h0c-3.4-2.4-7.8-3.5-12-3.6v7.1c4.5,0,8.8,1,12,4.6h0c0,0,.1.1.2.2,2.5-3.4,8.4-4.8,11.9-4.8v-7.1h0c-4.3,0-8.5,1.1-12,3.6ZM24.9,22.3c2.4-2.4,7.8-7.7,10-10l-4.1-4.1-8.5,8.5c-4.1,4.1-4.6,10.4-1.6,15.1,0-3.3,1.7-7.1,4.1-9.5ZM34,15.4c-.2.2-.4.4-.6.7,0,0-.1.1-.2.2,0,0-.2.2-.3.3,0,0-.1.1-.2.2,0,0-.1.1-.2.2,0,0-.1.1-.2.2,0,0-.1.1-.2.2l-.2.2c-.1.1-.2.2-.4.4,0,0-.1.1-.2.2-.9.9-1.8,1.8-2.6,2.6,0,0-.1.1-.2.2,0,0-.2.2-.2.2,0,0-.1.1-.2.2-.2.2-.4.4-.6.6l-.2.2c-.2.2-.4.4-.6.5l-.2.2c-.2.2-.4.4-.6.6-2.2,2.2-3.8,5.7-3.7,8.5,0,0,0,0,0,.1,0,0,0,.1,0,.2,0,0,0,0,0,0,0,0,0,.1,0,.2,0,0,0,.1,0,.2,0,0,0,.1,0,.2,0,.2,0,.3,0,.4,0,0,0,.2,0,.3,0,0,0,.1,0,.2,0,0,0,0,0,0,0,0,0,0,0,.1,0,0,0,0,0,.1,0,0,0,0,0,0l5.2,5.1c-.7-3.1.1-6.2,2.5-9.2h0c1.3-1.6,7-7.6,10.6-11.4-.2-.3-.4-.6-.7-.9-.3-.4-.7-.8-1-1.1l-3.3-3.3c-.5.5-1.1,1.1-1.9,1.9,0,0-.1.1-.2.2ZM42.9,25.2c0-1.7-.4-3.4-1.1-5-3.6,3.7-9,9.4-10.2,10.9-2.8,3.6-3.1,7.5-.8,11.1h0s8.4-8.4,8.4-8.4l.5-.5c2.1-2.3,3.1-5.2,3.1-8.1h0s0,0,0,0Z"/>
</svg>