<svg width="49" height="49" viewBox="0 0 49 49" fill="none" xmlns="http://www.w3.org/2000/svg">
<path d="M25.8847 6.98923C25.8842 6.77382 25.8837 6.55841 25.8837 6.343V6.34413C25.8837 6.14147 25.8846 5.9387 25.8855 5.73589C25.8877 5.26257 25.8899 4.78903 25.8802 4.31605C25.8687 3.78413 25.3562 3.11979 24.9264 3.04397C24.0621 2.89231 23.4979 3.12885 23.2278 3.81808C23.1362 4.04928 23.1355 4.32321 23.1349 4.58121L23.1347 4.63293C23.1278 5.95481 23.129 7.27782 23.1404 8.5997C23.145 9.01505 23.699 9.65788 24.0794 9.73257C25.0505 9.92384 25.8745 9.26403 25.8837 8.28168C25.8867 7.85086 25.8857 7.42004 25.8847 6.98923Z" fill="#0E5A67"/>
<path d="M10.1091 21.9374C10.5955 21.9251 11.0816 21.9128 11.5644 21.9464C12.3171 21.9985 12.7423 21.6725 13.0457 21.0297C13.3119 20.4651 13.6085 19.9148 13.905 19.3646C14.0245 19.1429 14.1441 18.9209 14.2616 18.6983C14.6822 17.9027 15.2856 17.2961 16.1303 16.9328C16.2291 16.89 16.3208 16.8306 16.4126 16.7711C16.4542 16.7442 16.4959 16.7172 16.5382 16.6917C16.5819 16.6753 16.6256 16.6586 16.6693 16.6419C16.7129 16.6252 16.7566 16.6085 16.8003 16.5921C17.7174 16.5859 18.6345 16.5791 19.5515 16.5724C22.4338 16.5512 25.3161 16.53 28.1984 16.5231L28.2214 16.5231C28.6916 16.523 29.1884 16.5229 29.5728 16.9237C29.8981 17.2633 30.0705 17.6481 29.9992 18.0883C29.9211 18.5685 29.8132 19.0444 29.7053 19.5201C29.6576 19.7305 29.6099 19.9408 29.5648 20.1515C29.4958 20.4729 29.3258 20.6019 28.9637 20.5962L28.7193 20.593C27.0275 20.5701 25.3345 20.5473 23.6428 20.5883C22.0442 20.6268 20.5341 21.0512 19.4642 22.2837C18.8275 23.0159 18.3575 23.9066 17.9058 24.7735C17.2407 26.0495 16.5905 27.333 15.9404 28.6165C15.2113 30.056 14.4821 31.4956 13.7318 32.9243C13.2618 33.8195 13.6272 34.6966 14.4616 35.0226C14.6154 35.0827 14.7691 35.1436 14.9228 35.2045L14.9238 35.2049C15.5907 35.4692 16.2585 35.7338 16.9428 35.9416C17.3161 36.0555 17.7103 36.1038 18.1049 36.1521C18.2823 36.1739 18.4598 36.1956 18.6356 36.2234C18.6727 36.2481 18.7092 36.2761 18.7457 36.3041C18.8345 36.3722 18.9235 36.4405 19.0229 36.4622C19.0675 36.4716 19.1314 36.3945 19.1952 36.3177C19.2234 36.2837 19.2516 36.2498 19.278 36.2234C19.5143 36.1846 19.7514 36.149 19.9884 36.1134C20.5744 36.0254 21.1608 35.9374 21.7351 35.8012C22.1373 35.7062 22.5177 35.4662 22.8717 35.2376C23.2465 34.9953 23.6048 34.7293 23.9634 34.4631C24.1139 34.3514 24.2644 34.2397 24.4162 34.1296L24.4746 34.0789C24.5165 34.0425 24.5586 34.006 24.6001 33.9689C24.8209 33.7129 25.0426 33.4569 25.2637 33.2017L25.3598 33.0907L25.3758 33.076L26.4515 31.5074C26.4642 31.4955 26.4765 31.4836 26.4889 31.4717C26.5012 31.4599 26.5136 31.448 26.5262 31.4361C27.1732 31.3195 27.6433 31.5334 28.1202 32.0121C30.0891 33.9886 32.0786 35.9448 34.0682 37.901C34.897 38.716 35.7259 39.531 36.5533 40.3474C36.7109 40.5027 36.8555 40.6706 37.0002 40.8386C37.0665 40.9156 37.1328 40.9926 37.2003 41.0684C36.7716 41.6546 36.1625 41.8991 35.5397 42.1028C34.9283 42.3032 34.3117 42.488 33.6948 42.6729L33.6933 42.6734C33.447 42.7472 33.1999 42.8213 32.9539 42.8961L32.6735 43.0602C32.1866 43.1979 31.6996 43.3358 31.2127 43.4737C30.7228 43.6125 30.2329 43.7513 29.7429 43.8898L29.6668 43.9341L29.6658 43.9347L29.6644 43.9355C29.5971 43.9747 29.5295 44.014 29.4625 44.0539C28.8917 44.2159 28.3209 44.3776 27.7499 44.5393L26.5308 44.8846L26.2504 45.0487C25.9393 45.14 25.6296 45.2387 25.3198 45.3375C24.6043 45.5656 23.8885 45.7937 23.1555 45.9303C22.1982 46.1092 21.2306 45.9473 20.3755 45.4029C20.3399 45.3792 20.3054 45.3565 20.2698 45.3328C20.1596 45.237 20.0479 45.1429 19.9361 45.0488C19.7007 44.8504 19.4653 44.6521 19.2447 44.4387C18.8139 44.0202 18.3865 43.5982 17.9592 43.1762C17.2969 42.5221 16.6345 41.868 15.959 41.2268C15.7763 41.0537 15.4626 40.9337 15.2074 40.9303C13.7277 40.912 12.248 40.9138 10.7563 40.9156C10.3074 40.9162 9.85747 40.9167 9.40611 40.9167C9.40162 40.8884 9.39592 40.8604 9.39027 40.8327C9.37855 40.7751 9.36704 40.7186 9.36704 40.6621C9.36474 34.5076 9.36589 28.3521 9.36704 22.1977C9.36704 22.1588 9.37138 22.1199 9.37569 22.0814C9.37803 22.0604 9.38036 22.0396 9.38197 22.0189C9.39462 22.007 9.40726 21.9948 9.4199 21.9826C9.43254 21.9705 9.44518 21.9583 9.45782 21.9464L9.45668 21.9498C9.67391 21.9484 9.89172 21.9429 10.1091 21.9374Z" fill="#0E5A67"/>
<path d="M42.432 40.902C42.4301 40.8859 42.4277 40.8695 42.4252 40.8529L42.4203 40.8214C42.4117 40.767 42.4029 40.7106 42.4021 40.6541C42.4009 34.5031 42.4009 28.3532 42.4021 22.2022C42.4021 22.1581 42.4071 22.1141 42.412 22.0705C42.4137 22.0547 42.4155 22.039 42.417 22.0234C42.4413 21.9995 42.4655 21.9767 42.4907 21.9529L42.494 21.9498C42.7951 21.9488 43.0963 21.9476 43.3974 21.9463C44.4811 21.9418 45.5648 21.9373 46.6485 21.9453C46.7701 21.9461 46.8912 21.9959 47.0125 22.0458C47.0688 22.069 47.1252 22.0922 47.1817 22.1105C46.9906 22.487 47.2075 22.6142 47.4308 22.7451C47.527 22.8015 47.6244 22.8586 47.6909 22.9367L47.6882 22.9468C47.6222 23.1999 47.5497 23.4776 48 23.4697V39.3741C47.777 39.3549 47.6426 39.3956 47.6196 39.6729C47.584 40.0928 47.4059 40.4153 46.8956 40.4561C46.6577 40.4753 46.4118 40.5761 46.4405 40.902H42.432Z" fill="#0E5A67"/>
<path d="M39.6373 24.6911C39.6351 24.2535 39.6328 23.8159 39.6311 23.3781H39.63C39.6173 23.3657 39.6047 23.3535 39.592 23.3413C39.5794 23.3292 39.5668 23.317 39.5541 23.3045C39.5135 23.303 39.4729 23.301 39.4323 23.299C39.3511 23.295 39.2699 23.291 39.1887 23.291C37.825 23.291 36.4613 23.2914 35.0975 23.2917C31.2789 23.2928 27.4601 23.2939 23.6418 23.2864C22.326 23.2842 21.425 23.9032 20.8492 25.0135C19.8643 26.9114 18.9013 28.8195 17.9393 30.7288C17.6737 31.2559 17.4222 31.7894 17.1707 32.323L17.1702 32.3239C17.0562 32.5657 16.9422 32.8076 16.8269 33.0489L16.889 33.1168C17.9118 33.5332 18.9691 33.6215 20.0493 33.4054C21.3893 33.1371 22.5248 32.5 23.2994 31.3863C23.71 30.795 24.0384 30.1459 24.3658 29.4988C24.4405 29.3511 24.5155 29.2028 24.5911 29.0561C24.7267 28.7924 24.8761 28.6996 25.1749 28.712C25.6086 28.7304 26.0432 28.727 26.4779 28.7236C26.6849 28.722 26.8919 28.7203 27.0987 28.7211C27.902 28.7245 28.6525 28.892 29.2788 29.4273C29.3287 29.4723 29.3791 29.5169 29.4294 29.5616C29.5475 29.6661 29.6657 29.7709 29.7776 29.8811C30.5671 30.6583 31.3564 31.4356 32.1459 32.2129C34.512 34.5428 36.8784 36.873 39.2473 39.1999C39.3207 39.2714 39.4144 39.323 39.508 39.3746C39.5537 39.3997 39.5993 39.4248 39.6426 39.4523L39.644 35.2954C39.645 32.5268 39.6461 29.7584 39.6461 26.9895C39.6453 26.2237 39.6413 25.4584 39.6373 24.693V24.6911Z" fill="#0E5A67"/>
<path d="M1.10348 40.1058L1.01384 39.7334C1.01384 38.2884 1.01515 36.8434 1.01645 35.3984C1.02005 31.4246 1.02365 27.4508 1.00005 23.477C0.993153 22.4256 1.72177 21.8937 2.57909 21.9243C3.50215 21.9569 4.4269 21.9537 5.35137 21.9505C5.74126 21.9492 6.13133 21.9478 6.52096 21.9492C6.54625 21.9741 6.57153 21.999 6.59681 22.0227C6.59834 22.3031 6.60038 22.5834 6.60242 22.8638C6.60651 23.4254 6.6106 23.9877 6.6106 24.5499C6.61137 28.0712 6.61111 31.5924 6.61086 35.1136L6.6106 40.9048C6.17916 40.9048 5.75045 40.9068 5.32374 40.9089H5.3224C4.20829 40.9143 3.10781 40.9197 2.00793 40.8878C1.57352 40.8753 1.24139 40.5505 1.10118 40.1058H1.10348Z" fill="#0E5A67"/>
<path d="M17.4605 12.9865L16.9836 13.5478C16.9284 13.5727 16.8732 13.5976 16.8181 13.6214C16.3434 13.9869 15.7148 13.8183 15.3241 13.4641C14.8663 13.0503 14.4216 12.6228 13.9768 12.1952C13.6052 11.838 13.2336 11.4808 12.8544 11.1316C12.3027 10.6234 11.9809 10.0496 12.1303 9.28455L12.2211 9.10347C12.2562 9.04785 12.2904 8.99157 12.3246 8.93529C12.4081 8.798 12.4916 8.66069 12.5877 8.53307C12.6418 8.46064 12.7544 8.38594 12.8371 8.38934L12.9567 8.39276C13.2905 8.40202 13.6283 8.41138 13.9496 8.48214C14.0887 8.51267 14.2118 8.6125 14.335 8.71235C14.39 8.75687 14.4449 8.80139 14.5012 8.83977C14.5306 8.87143 14.5596 8.90352 14.5887 8.9356C14.6551 9.00902 14.7216 9.08249 14.792 9.151C15.4065 9.75106 16.0223 10.3505 16.6379 10.9498L17.2536 11.5492C17.5743 11.9487 17.7317 12.3821 17.5294 12.8869C17.5065 12.9197 17.4835 12.9514 17.4593 12.9842L17.4605 12.9865Z" fill="#0E5A67"/>
<path d="M36.7512 9.27483C36.4765 8.34115 35.1296 8.21552 34.5182 8.74292L31.7589 11.4602C31.267 12.1019 31.2613 12.936 31.7474 13.3876C32.314 13.9161 33.1805 13.9569 33.7137 13.4453C34.6435 12.5524 35.564 11.6492 36.4684 10.7314C36.873 10.3217 36.9063 9.80336 36.7512 9.27483Z" fill="#0E5A67"/>
</svg>
