<svg width="21" height="21" viewBox="0 0 21 21" fill="none" xmlns="http://www.w3.org/2000/svg">
<path d="M10.1357 0.0148162C3.88015 0.342806 -0.249212 5.26572 0.0116885 11.4735C0.125638 14.1907 1.21421 16.5288 1.47211 19.1076C1.53808 19.7757 1.34616 20.6002 2.11385 20.892C3.05848 21.2501 4.5069 20.6483 5.29859 20.0976C5.56848 19.9141 5.82638 19.7004 6.0243 19.4356C6.843 19.9803 7.6197 20.5069 8.5943 20.7416C12.8856 21.7737 17.5877 19.4116 19.6779 15.6171C23.6063 8.4885 18.2954 -0.412484 10.1357 0.0148162ZM7.7066 14.8919C7.3678 15.1567 7.0409 15.5178 6.666 15.7254C6.1233 16.0173 5.95533 15.7134 5.75141 15.2319C5.10966 13.7003 5.03169 11.0914 5.40655 9.4875C5.91035 7.3059 7.5927 5.38608 9.9048 5.18146C12.2438 4.97383 14.415 6.1654 15.3956 8.317C17.5667 13.1045 12.0099 17.8318 7.7066 14.8949V14.8919Z" fill="white"/>
</svg>
